<?xml version="1.0" encoding="UTF-8" standalone="no"?>
<svg
   xmlns:dc="http://purl.org/dc/elements/1.1/"
   xmlns:cc="http://creativecommons.org/ns#"
   xmlns:rdf="http://www.w3.org/1999/02/22-rdf-syntax-ns#"
   xmlns:svg="http://www.w3.org/2000/svg"
   xmlns="http://www.w3.org/2000/svg"
   height="165.2"
   width="393"
   xml:space="preserve"
   viewBox="0 0 392.99998 165.2"
   y="0px"
   x="0px"
   id="Layer_1"
   version="1.1"><metadata
   id="metadata33"><rdf:RDF><cc:Work
       rdf:about=""><dc:format>image/svg+xml</dc:format><dc:type
         rdf:resource="http://purl.org/dc/dcmitype/StillImage" /><dc:title></dc:title></cc:Work></rdf:RDF></metadata><defs
   id="defs31">
	
	
</defs>
<style
   id="style2"
   type="text/css">
	.st0{fill:#E8B975;}
</style>
<g
   transform="translate(-87,-59.1)"
   id="g18">
		<path
   class="st0"
   d="m 267.1,136.3 h 9.1 v 29 h 16.5 v 7.7 h -25.6 z"
   id="path4"
   style="fill:#e8b975" />
		<path
   class="st0"
   d="m 296.1,136.3 h 9.1 V 173 h -9.1 z"
   id="path6"
   style="fill:#e8b975" />
		<path
   class="st0"
   d="M 310.3,136.3 H 328 c 3.8,0 6.6,0.9 8.6,2.5 2.1,1.7 3.2,4.1 3.2,7 0,3.6 -1.9,6 -5.1,7.2 v 0.2 c 4,1.2 6.6,4.6 6.6,9 0,3.7 -1.3,6.4 -3.8,8.2 -2.2,1.7 -5.2,2.6 -9,2.6 h -18.1 v -36.7 z m 16.4,14.5 c 2.6,0 4.4,-1.3 4.4,-3.7 0,-2.3 -1.7,-3.6 -4.4,-3.6 h -7.5 v 7.3 z m 0.7,15 c 3,0 4.8,-1.7 4.8,-4.3 0,-2.9 -2.2,-4.4 -4.9,-4.4 h -8 v 8.7 z"
   id="path8"
   style="fill:#e8b975" />
		<path
   class="st0"
   d="m 344.5,160.1 v -23.8 h 9.1 v 24.1 c 0,3.6 1.9,6 6.3,6 4.2,0 6.2,-2.6 6.2,-6.2 v -23.9 h 9.1 v 23.8 c 0,8.5 -5.1,13.6 -15.3,13.6 -10.3,0 -15.4,-5 -15.4,-13.6 z"
   id="path10"
   style="fill:#e8b975" />
		<path
   class="st0"
   d="m 378.5,161.5 h 9.1 c 0.4,3.7 2.8,5.2 7.2,5.2 3,0 5.9,-1.1 5.9,-3.9 0,-2.9 -3,-3.5 -8,-4.8 -6.4,-1.5 -13.1,-3.4 -13.1,-11.2 0,-7.9 6.4,-11.3 14.6,-11.3 8,0 14.1,3.6 14.5,11.3 h -8.9 c -0.4,-2.8 -2.5,-4.4 -5.9,-4.4 -3.2,0 -5.3,1.4 -5.3,3.4 0,2.6 2.8,3.2 8.3,4.4 6.8,1.6 13,3.7 13,11.6 0,7.7 -6.6,12 -15.1,12 -9.7,0.1 -16.1,-4.2 -16.3,-12.3 z"
   id="path12"
   style="fill:#e8b975" />
		<path
   class="st0"
   d="m 413.7,136.3 h 9.1 v 13.9 h 12.9 v -13.9 h 9.1 V 173 h -9.1 V 157.7 H 422.8 V 173 h -9.1 z"
   id="path14"
   style="fill:#e8b975" />
		<path
   class="st0"
   d="m 449.8,136.3 h 27.9 v 7.5 h -18.8 v 6.6 H 475 v 7.1 h -16.1 v 7.9 H 478 v 7.7 h -28.2 z"
   id="path16"
   style="fill:#e8b975" />
	</g><g
   transform="translate(-87,-59.1)"
   id="g24">
		<path
   class="st0"
   d="m 112.4,121.5 v 50.4 c 0,27.8 22.6,50.4 50.4,50.4 27.8,0 50.4,-22.6 50.4,-50.4 v -50.3 l -51,24.1 z m 91.8,50.4 c 0,22.8 -18.6,41.4 -41.4,41.4 -22.8,0 -41.4,-18.6 -41.4,-41.4 v -36 l 36.3,17.6 v 33.3 h 17.1 v -9 h -8.1 v -24.2 l 37.5,-17.7 z"
   id="path20"
   style="fill:#e8b975" />
		<path
   class="st0"
   d="M 163.2,61.1 C 122.3,61.1 89,94.4 89,135.3 v 86.4 h 9 v -86.4 c 0,-11.2 2.8,-21.8 7.8,-31 l 56.4,27.3 58.1,-27.5 c 5.1,9.3 7.9,19.9 7.9,31.1 v 86.4 h 9 v -86.4 c 0.1,-40.8 -33.1,-74.1 -74,-74.1 z m -0.9,60.6 -51.6,-25 c 11.9,-16.1 31,-26.6 52.5,-26.6 21.4,0 40.5,10.4 52.3,26.4 z"
   id="path22"
   style="fill:#e8b975" />
	</g>
</svg>