<?xml version="1.0" encoding="UTF-8" standalone="no"?>
<svg
   xmlns:dc="http://purl.org/dc/elements/1.1/"
   xmlns:cc="http://creativecommons.org/ns#"
   xmlns:rdf="http://www.w3.org/1999/02/22-rdf-syntax-ns#"
   xmlns:svg="http://www.w3.org/2000/svg"
   xmlns="http://www.w3.org/2000/svg"
   xmlns:sodipodi="http://sodipodi.sourceforge.net/DTD/sodipodi-0.dtd"
   xmlns:inkscape="http://www.inkscape.org/namespaces/inkscape"
   height="167"
   width="167"
   xml:space="preserve"
   viewBox="0 0 167 167.00002"
   y="0px"
   x="0px"
   id="Layer_1"
   version="1.1"
   sodipodi:docname="libushe_favicon.svg"
   inkscape:export-filename="/home/beda/bitmap.png"
   inkscape:export-xdpi="9.2048092"
   inkscape:export-ydpi="9.2048092"
   inkscape:version="0.92.5 (2060ec1f9f, 2020-04-08)"><sodipodi:namedview
   pagecolor="#ffffff"
   bordercolor="#666666"
   borderopacity="1"
   objecttolerance="10"
   gridtolerance="10"
   guidetolerance="10"
   inkscape:pageopacity="0"
   inkscape:pageshadow="2"
   inkscape:window-width="1920"
   inkscape:window-height="1117"
   id="namedview830"
   showgrid="false"
   fit-margin-top="0"
   fit-margin-left="0"
   fit-margin-right="0"
   fit-margin-bottom="0"
   inkscape:zoom="3.6386768"
   inkscape:cx="113.8185"
   inkscape:cy="83.434659"
   inkscape:window-x="0"
   inkscape:window-y="28"
   inkscape:window-maximized="1"
   inkscape:current-layer="Layer_1" /><metadata
   id="metadata33"><rdf:RDF><cc:Work
       rdf:about=""><dc:format>image/svg+xml</dc:format><dc:type
         rdf:resource="http://purl.org/dc/dcmitype/StillImage" /><dc:title></dc:title></cc:Work></rdf:RDF></metadata><defs
   id="defs31">
	
	
</defs>
<style
   id="style2"
   type="text/css">
	.st0{fill:#E8B975;}
</style>
<g
   transform="translate(-79.264655,-58.134647)"
   id="g24">
		<path
   class="st0"
   d="m 112.4,121.5 v 50.4 c 0,27.8 22.6,50.4 50.4,50.4 27.8,0 50.4,-22.6 50.4,-50.4 v -50.3 l -51,24.1 z m 91.8,50.4 c 0,22.8 -18.6,41.4 -41.4,41.4 -22.8,0 -41.4,-18.6 -41.4,-41.4 v -36 l 36.3,17.6 v 33.3 h 17.1 v -9 h -8.1 v -24.2 l 37.5,-17.7 z"
   id="path20"
   style="fill:#4d7bb3;fill-opacity:1;stroke:#4d7bb3;stroke-width:5.6692915;stroke-miterlimit:4;stroke-dasharray:none;stroke-opacity:1"
   inkscape:connector-curvature="0" />
		<path
   class="st0"
   d="M 163.2,61.1 C 122.3,61.1 89,94.4 89,135.3 v 86.4 h 9 v -86.4 c 0,-11.2 2.8,-21.8 7.8,-31 l 56.4,27.3 58.1,-27.5 c 5.1,9.3 7.9,19.9 7.9,31.1 v 86.4 h 9 v -86.4 c 0.1,-40.8 -33.1,-74.1 -74,-74.1 z m -0.9,60.6 -51.6,-25 c 11.9,-16.1 31,-26.6 52.5,-26.6 21.4,0 40.5,10.4 52.3,26.4 z"
   id="path22"
   style="fill:#4d7bb3;fill-opacity:1;stroke:#4d7bb3;stroke-width:5.6692915;stroke-miterlimit:4;stroke-dasharray:none;stroke-opacity:1"
   inkscape:connector-curvature="0" />
	</g>
</svg>